<svg width="169" height="41" viewBox="0 0 169 41" fill="none" xmlns="http://www.w3.org/2000/svg">
<g clip-path="url(#clip0_601_2932)">
<path d="M98.4346 39.5259V38.0996L97.818 39.0332L97.1962 38.1178V39.5336H96.7227V37.3398H97.243L97.818 38.263L98.3956 37.3398H98.916V39.5233L98.4346 39.5259Z" fill="#FAB818"/>
<path d="M95.6865 37.7833V39.5258H95.2051V37.7833H94.5391V37.3398H96.3603V37.7807L95.6865 37.7833Z" fill="#FAB818"/>
<path d="M126.037 34.8301V28.5547H128.306V34.1584C128.306 35.6884 129.086 36.5675 130.424 36.5675C131.761 36.5675 132.653 35.6521 132.653 34.1221V28.5547H134.92V38.4086H132.653V36.876C132.016 37.8096 131.092 38.6134 129.56 38.6134C127.333 38.6134 126.037 37.1198 126.037 34.8223" fill="white"/>
<path d="M161.133 37.1296L162.145 35.597C163.065 36.3405 164.201 36.7703 165.384 36.8236C166.36 36.8236 166.922 36.4139 166.922 35.7215C166.922 35.0291 165.967 34.7335 164.879 34.4249L164.71 34.3705C163.251 33.94 161.619 33.3332 161.619 31.4195C161.619 29.5524 163.18 28.4141 165.142 28.4141C166.438 28.4362 167.701 28.8247 168.785 29.5343L167.877 31.1187C166.922 30.5404 165.91 30.1852 165.085 30.1852C164.206 30.1852 163.698 30.5949 163.698 31.2224C163.698 31.894 164.656 32.1923 165.741 32.5475L165.928 32.6046C167.372 33.0532 169.001 33.7066 169.001 35.5166C169.001 37.5912 167.39 38.6284 165.33 38.6284C163.806 38.6084 162.332 38.0899 161.133 37.1529" fill="white"/>
<path d="M137.764 28.5564H140.032V30.0812C140.67 29.1476 141.594 28.3438 143.123 28.3438C145.353 28.3438 146.646 29.8374 146.646 32.1349V38.4103H144.38V32.8143C144.38 31.2844 143.6 30.4053 142.262 30.4053C140.925 30.4053 140.032 31.3207 140.032 32.8532V38.4181H137.764V28.5564Z" fill="white"/>
<path d="M114.119 25.3438H123.884V27.4364H116.424V31.002H123.038V33.0946H116.424V38.4183H114.119V25.3438Z" fill="white"/>
<path d="M156.889 33.467C156.889 31.5636 155.539 30.3111 154.027 30.3111C152.516 30.3111 151.165 31.5066 151.165 33.5059C151.165 35.4092 152.466 36.6617 154.012 36.6617C155.557 36.6617 156.874 35.3911 156.874 33.467H156.889ZM148.873 33.467C148.873 30.1996 151.103 28.3507 153.463 28.3507C155.094 28.3507 156.124 29.1727 156.845 30.0881V24.7852H159.111V38.4172H156.845V36.7732C156.114 37.8105 155.084 38.6221 153.463 38.6221C151.139 38.6221 148.873 36.7732 148.873 33.467Z" fill="white"/>
<path d="M133.26 2.74805H130.902V16.126H133.26V2.74805Z" fill="white"/>
<path d="M114.119 2.74805H116.632L120.722 9.07529L124.807 2.74805H127.318V16.1286H124.961V6.53402L120.722 12.8405H120.644L116.445 6.57292V16.1286H114.124L114.119 2.74805Z" fill="white"/>
<path d="M91.4519 2.67188H83.6387V38.0681H91.4519V2.67188Z" fill="#FAB818"/>
<path d="M39.2422 2.67188H47.6642L56.9995 17.6342L66.3452 2.67188H74.7672V38.0707H66.9956V14.9607L56.9995 30.0813H56.7965L46.9097 15.1137V38.0733H39.2422V2.67188Z" fill="#FAB818"/>
<path d="M136.25 9.438C136.25 5.63388 139.112 2.51953 143.171 2.51953C145.645 2.51953 147.141 3.38045 148.426 4.59404L146.912 6.33402C145.838 5.34086 144.688 4.67183 143.153 4.67183C140.585 4.67183 138.73 6.77486 138.73 9.43022C138.73 12.0856 140.59 14.1912 143.153 14.1912C144.802 14.1912 145.856 13.5222 147.008 12.4512L148.523 13.9786C147.123 15.4333 145.588 16.3513 143.077 16.3513C139.174 16.3513 136.25 13.3121 136.25 9.43022" fill="white"/>
<path d="M29.1652 24.7758C28.0805 27.2493 26.1745 29.2752 23.7677 30.513C21.3608 31.7508 18.5997 32.1251 15.9486 31.5728C13.2974 31.0206 10.9178 29.5756 9.20979 27.4807C7.50174 25.3858 6.56935 22.7687 6.56935 20.0693C6.56935 17.3699 7.50174 14.7528 9.20979 12.6579C10.9178 10.563 13.2974 9.11797 15.9486 8.56576C18.5997 8.01355 21.3608 8.3878 23.7677 9.6256C26.1745 10.8634 28.0805 12.8893 29.1652 15.3628H36.112C34.9656 11.0699 32.2917 7.33918 28.5888 4.86649C24.8859 2.39381 20.407 1.348 15.9875 1.92413C11.568 2.50026 7.50959 4.65898 4.56936 7.99766C1.62913 11.3363 0.0078125 15.627 0.0078125 20.0693C0.0078125 24.5116 1.62913 28.8023 4.56936 32.1409C7.50959 35.4796 11.568 37.6383 15.9875 38.2145C20.407 38.7906 24.8859 37.7448 28.5888 35.2721C32.2917 32.7994 34.9656 29.0687 36.112 24.7758H29.1652Z" fill="#FAB818"/>
<path fill-rule="evenodd" clip-rule="evenodd" d="M22.1163 24.1165L25.5663 21.22L24.8404 20.8595C24.5386 20.7403 24.5985 20.5587 24.7181 20.1361L25.2619 18.1419L23.2663 18.5698C23.0244 18.5698 22.9021 18.4453 22.9021 18.3261L22.6003 17.421L21.0392 19.2362C20.7946 19.5344 20.3705 19.5344 20.4902 18.8732L21.1589 15.1313L20.2483 15.6162C20.1707 15.6508 20.0841 15.6598 20.0011 15.6422C19.8991 15.6261 19.8022 15.5868 19.7178 15.5275C19.6335 15.4681 19.5639 15.3903 19.5145 15.2999L18.3515 13.0957L17.0819 15.5073C16.9596 15.8107 16.7176 15.7485 16.4158 15.6292L15.5104 15.1443L16.2337 18.8862C16.356 19.5474 15.872 19.5474 15.6899 19.2492L14.0534 17.434L13.8114 18.339C13.8114 18.4583 13.6293 18.5828 13.4497 18.5828L11.462 18.1523L12.0083 20.1464C12.128 20.5691 12.1879 20.7506 11.8861 20.8699L11.1602 21.2304L14.6101 24.1165C14.6815 24.1729 14.7362 24.2476 14.7683 24.3325C14.8004 24.4175 14.8087 24.5095 14.7923 24.5988L14.4905 25.6361C15.6405 25.5142 16.728 25.3975 17.9405 25.273C18.0003 25.273 18.1824 25.3379 18.1824 25.4572L18.0601 27.1479H18.6065L18.5441 25.4572C18.5441 25.3379 18.6664 25.273 18.786 25.273C19.9985 25.3975 21.0288 25.5142 22.236 25.6361L21.9342 24.5988C21.9036 24.5099 21.905 24.4131 21.9382 24.325C21.9715 24.237 22.0345 24.1633 22.1163 24.1165Z" fill="#FAB818"/>
<path d="M107.012 0H106.111V41H107.012V0Z" fill="white"/>
</g>
<defs>
<clipPath id="clip0_601_2932">
<rect width="169" height="41" fill="white"/>
</clipPath>
</defs>
</svg>
